<svg width="1350" height="1080" viewBox="0 0 1350 1080" fill="none" xmlns="http://www.w3.org/2000/svg">
<rect width="1350" height="1080" fill="url(#paint0_linear_52_30)"/>
<g clip-path="url(#clip0_52_30)">
<path d="M1156.31 109.2L1150.13 103.466L1156.31 97.6H1162.48V109.2H1156.31ZM1168.64 97.6C1168.64 94.3914 1165.88 91.8 1162.46 91.8H1156.29L1150.12 97.6V86H1143.95V115H1150.12V109.2L1156.29 115H1162.46C1165.88 115 1168.64 112.41 1168.64 109.2V97.6Z" fill="white"/>
<path d="M1184.84 109.2L1191.02 103.465L1184.84 97.5998H1178.67V109.2H1184.84ZM1172.5 97.5998C1172.5 94.3903 1175.26 91.7998 1178.67 91.7998H1184.84L1191.01 97.5998V91.7998H1197.19V115H1191.01V109.2L1184.84 115H1178.67C1175.26 115 1172.5 112.409 1172.5 109.2V97.5998Z" fill="white"/>
<path d="M1259.64 109.2L1265.81 103.465L1259.64 97.5998H1253.47V109.2H1259.64ZM1247.31 97.5998C1247.31 94.3903 1250.07 91.7998 1253.48 91.7998H1259.65L1265.83 97.5998V91.7998H1272V115H1265.83V109.2L1259.65 115H1253.48C1250.07 115 1247.31 112.409 1247.31 109.2V97.5998Z" fill="white"/>
<path d="M1215.68 91.8C1215.68 88.5905 1212.92 86 1209.51 86H1201.8V91.8H1209.51V109.2H1201.8V115H1223.4V109.2H1215.69V91.8H1215.68Z" fill="white"/>
<path d="M1234.2 86H1228.02V91.8H1221.85V97.6H1228.02V109.2C1228.02 112.41 1230.78 115 1234.2 115H1243.45V109.2H1234.2V97.6H1243.45V91.8H1234.2V86Z" fill="white"/>
<path d="M1125.47 112.422V115H1131.61V109.068L1125.47 112.422Z" fill="white"/>
<path d="M1111.76 96.272L1118.31 92.6944L1124.87 96.272L1131.02 92.9182L1118.31 86L1105.61 92.9182L1111.76 96.272Z" fill="white"/>
<path d="M1125.47 104.399L1118.92 107.964V114.658L1131.61 107.753V93.9043L1125.47 97.2581V104.399Z" fill="white"/>
<path d="M1111.14 88.5774V86H1105V91.9311L1111.14 88.5774Z" fill="white"/>
<path d="M1117.71 107.977L1111.14 104.399V97.2581L1105 93.9043V107.753L1117.71 114.671V107.977Z" fill="white"/>
</g>
<defs>
<linearGradient id="paint0_linear_52_30" x1="1.00583e-05" y1="1080" x2="844.15" y2="-307.711" gradientUnits="userSpaceOnUse">
<stop stop-color="#2B0161"/>
<stop offset="0.667595" stop-color="#6F36E0"/>
<stop offset="1" stop-color="#4A90FF"/>
</linearGradient>
<clipPath id="clip0_52_30">
<rect width="167" height="29" fill="white" transform="translate(1105 86)"/>
</clipPath>
</defs>
</svg>
