<svg width="331" height="59" viewBox="0 0 331 59" fill="none" xmlns="http://www.w3.org/2000/svg">
<g clip-path="url(#clip0_17_728)">
<path d="M101.689 47.2L89.4546 35.5334L101.689 23.6H113.924V47.2H101.689ZM126.13 23.6C126.13 17.0722 120.662 11.8 113.896 11.8H101.661L89.427 23.6V0H77.1925V59H89.427V47.2L101.661 59H113.896C120.662 59 126.13 53.7297 126.13 47.2V23.6Z" fill="white"/>
<path d="M158.251 47.1998L170.486 35.5332L158.251 23.5998H146.017V47.1998H158.251ZM133.78 23.5998C133.78 17.0701 139.249 11.7998 146.015 11.7998H158.249L170.484 23.5998V11.7998H182.718V58.9998H170.484V47.1998L158.249 58.9998H146.015C139.249 58.9998 133.78 53.7295 133.78 47.1998V23.5998Z" fill="white"/>
<path d="M306.503 47.1998L318.738 35.5332L306.503 23.5998H294.269V47.1998H306.503ZM282.062 23.5998C282.062 17.0701 287.53 11.7998 294.297 11.7998H306.531L318.765 23.5998V11.7998H331V58.9998H318.765V47.1998L306.531 58.9998H294.297C287.53 58.9998 282.062 53.7295 282.062 47.1998V23.5998Z" fill="white"/>
<path d="M219.369 11.8C219.369 5.27027 213.9 0 207.134 0H191.862V11.8H207.134V47.2H191.862V59H234.669V47.2H219.396V11.8H219.369Z" fill="white"/>
<path d="M256.072 0H243.838V11.8H231.603V23.6H243.838V47.2C243.838 53.7297 249.306 59 256.072 59H274.41V47.2H256.072V23.6H274.41V11.8H256.072V0Z" fill="white"/>
<path d="M40.5699 53.7543V58.9998H52.7491V46.9312L40.5699 53.7543Z" fill="white"/>
<path d="M13.3944 20.8982L26.3746 13.6196L39.3823 20.8982L51.5636 14.075L26.3746 0L1.21515 14.075L13.3944 20.8982Z" fill="white"/>
<path d="M40.5699 37.4332L27.5898 44.6851V58.3047L52.7492 44.2564V16.0815L40.5699 22.9047V37.4332Z" fill="white"/>
<path d="M12.1793 5.2436V0H0V12.0668L12.1793 5.2436Z" fill="white"/>
<path d="M25.187 44.7117L12.1793 37.4332V22.9047L0 16.0815V44.2564L25.187 58.3314V44.7117Z" fill="white"/>
</g>
<defs>
<clipPath id="clip0_17_728">
<rect width="331" height="59" fill="white"/>
</clipPath>
</defs>
</svg>
